<mxfile host="app.diagrams.net" modified="2022-09-02T20:11:02.810Z" agent="5.0 (Windows NT 6.1; Win64; x64) AppleWebKit/537.36 (KHTML, like Gecko) Chrome/104.0.0.0 Safari/537.36" etag="xyK2chiBKu5MRIMLRo3j" version="20.2.8" type="github">
  <diagram name="Page-1" id="e56a1550-8fbb-45ad-956c-1786394a9013">
    <mxGraphModel dx="1342" dy="559" grid="1" gridSize="10" guides="1" tooltips="1" connect="1" arrows="1" fold="1" page="1" pageScale="1" pageWidth="1100" pageHeight="850" background="none" math="0" shadow="0">
      <root>
        <object label="" id="0">
          <mxCell />
        </object>
        <mxCell id="1" parent="0" />
        <mxCell id="z0_PHELPX_EGwCgBbNVm-18" style="edgeStyle=orthogonalEdgeStyle;rounded=0;orthogonalLoop=1;jettySize=auto;html=1;exitX=1;exitY=0.5;exitDx=0;exitDy=0;entryX=0;entryY=0.5;entryDx=0;entryDy=0;fontFamily=Times New Roman;fontSize=14;" edge="1" parent="1" source="z0_PHELPX_EGwCgBbNVm-2" target="z0_PHELPX_EGwCgBbNVm-5">
          <mxGeometry relative="1" as="geometry" />
        </mxCell>
        <mxCell id="z0_PHELPX_EGwCgBbNVm-51" style="edgeStyle=elbowEdgeStyle;rounded=0;orthogonalLoop=1;jettySize=auto;html=1;fontFamily=Times New Roman;fontSize=14;" edge="1" parent="1" source="z0_PHELPX_EGwCgBbNVm-2" target="z0_PHELPX_EGwCgBbNVm-29">
          <mxGeometry relative="1" as="geometry">
            <Array as="points">
              <mxPoint x="140" y="440" />
              <mxPoint x="105" y="210" />
            </Array>
          </mxGeometry>
        </mxCell>
        <UserObject label="&lt;h1&gt;&lt;font style=&quot;vertical-align: inherit;&quot;&gt;&lt;font style=&quot;vertical-align: inherit;&quot;&gt;&lt;font style=&quot;vertical-align: inherit;&quot;&gt;&lt;font style=&quot;vertical-align: inherit;&quot;&gt;&lt;font style=&quot;vertical-align: inherit;&quot;&gt;&lt;font style=&quot;vertical-align: inherit;&quot;&gt;&lt;font style=&quot;vertical-align: inherit;&quot;&gt;&lt;font style=&quot;vertical-align: inherit;&quot;&gt;&lt;font style=&quot;vertical-align: inherit;&quot;&gt;&lt;font style=&quot;vertical-align: inherit;&quot;&gt;&lt;font style=&quot;vertical-align: inherit;&quot;&gt;&lt;font style=&quot;vertical-align: inherit;&quot;&gt;&lt;font style=&quot;vertical-align: inherit;&quot;&gt;&lt;font style=&quot;vertical-align: inherit; font-size: 14px;&quot;&gt;Cliente&lt;/font&gt;&lt;/font&gt;&lt;/font&gt;&lt;/font&gt;&lt;/font&gt;&lt;/font&gt;&lt;/font&gt;&lt;/font&gt;&lt;/font&gt;&lt;/font&gt;&lt;/font&gt;&lt;/font&gt;&lt;/font&gt;&lt;/font&gt;&lt;/h1&gt;" tooltip="Cliente" id="z0_PHELPX_EGwCgBbNVm-2">
          <mxCell style="rounded=1;whiteSpace=wrap;html=1;fillColor=#FAFAFA;arcSize=33;" vertex="1" parent="1">
            <mxGeometry x="40" y="130" width="130" height="60" as="geometry" />
          </mxCell>
        </UserObject>
        <mxCell id="z0_PHELPX_EGwCgBbNVm-20" style="edgeStyle=orthogonalEdgeStyle;rounded=0;orthogonalLoop=1;jettySize=auto;html=1;entryX=0.1;entryY=0.385;entryDx=0;entryDy=0;entryPerimeter=0;fontFamily=Times New Roman;fontSize=14;" edge="1" parent="1" source="z0_PHELPX_EGwCgBbNVm-5" target="z0_PHELPX_EGwCgBbNVm-11">
          <mxGeometry relative="1" as="geometry" />
        </mxCell>
        <mxCell id="z0_PHELPX_EGwCgBbNVm-28" style="edgeStyle=orthogonalEdgeStyle;rounded=0;orthogonalLoop=1;jettySize=auto;html=1;exitX=0.5;exitY=1;exitDx=0;exitDy=0;entryX=0.5;entryY=0;entryDx=0;entryDy=0;fontFamily=Times New Roman;fontSize=14;" edge="1" parent="1" source="z0_PHELPX_EGwCgBbNVm-5" target="z0_PHELPX_EGwCgBbNVm-22">
          <mxGeometry relative="1" as="geometry" />
        </mxCell>
        <mxCell id="z0_PHELPX_EGwCgBbNVm-5" value="&lt;h1&gt;&lt;font style=&quot;vertical-align: inherit;&quot;&gt;&lt;font style=&quot;vertical-align: inherit;&quot;&gt;&lt;font style=&quot;vertical-align: inherit;&quot;&gt;&lt;font style=&quot;vertical-align: inherit;&quot;&gt;&lt;font style=&quot;vertical-align: inherit;&quot;&gt;&lt;font style=&quot;vertical-align: inherit; font-size: 14px;&quot;&gt;PJ&lt;/font&gt;&lt;/font&gt;&lt;/font&gt;&lt;/font&gt;&lt;/font&gt;&lt;/font&gt;&lt;/h1&gt;" style="rhombus;whiteSpace=wrap;html=1;fontFamily=Times New Roman;fontSize=18;fillColor=#FAFAFA;" vertex="1" parent="1">
          <mxGeometry x="270" y="120" width="110" height="80" as="geometry" />
        </mxCell>
        <mxCell id="z0_PHELPX_EGwCgBbNVm-52" style="edgeStyle=elbowEdgeStyle;rounded=0;orthogonalLoop=1;jettySize=auto;html=1;entryX=1;entryY=0.5;entryDx=0;entryDy=0;fontFamily=Times New Roman;fontSize=14;" edge="1" parent="1" source="z0_PHELPX_EGwCgBbNVm-11" target="z0_PHELPX_EGwCgBbNVm-29">
          <mxGeometry relative="1" as="geometry">
            <Array as="points">
              <mxPoint x="550" y="220" />
              <mxPoint x="410" y="510" />
              <mxPoint x="550" y="360" />
              <mxPoint x="500" y="510" />
              <mxPoint x="560" y="230" />
            </Array>
          </mxGeometry>
        </mxCell>
        <mxCell id="z0_PHELPX_EGwCgBbNVm-11" value="&lt;font style=&quot;font-size: 14px;&quot;&gt;PF&lt;/font&gt;" style="rounded=1;whiteSpace=wrap;html=1;fontFamily=Times New Roman;fontSize=36;fillColor=#FAFAFA;" vertex="1" parent="1">
          <mxGeometry x="500" y="135" width="100" height="65" as="geometry" />
        </mxCell>
        <mxCell id="z0_PHELPX_EGwCgBbNVm-31" style="edgeStyle=orthogonalEdgeStyle;rounded=0;orthogonalLoop=1;jettySize=auto;html=1;entryX=0.5;entryY=0;entryDx=0;entryDy=0;fontFamily=Times New Roman;fontSize=14;" edge="1" parent="1" source="z0_PHELPX_EGwCgBbNVm-22" target="z0_PHELPX_EGwCgBbNVm-29">
          <mxGeometry relative="1" as="geometry" />
        </mxCell>
        <mxCell id="z0_PHELPX_EGwCgBbNVm-22" value="Pagamento" style="ellipse;whiteSpace=wrap;html=1;fontFamily=Times New Roman;fontSize=14;fillColor=#FAFAFA;" vertex="1" parent="1">
          <mxGeometry x="265" y="310" width="120" height="80" as="geometry" />
        </mxCell>
        <mxCell id="z0_PHELPX_EGwCgBbNVm-29" value="Entrega" style="shape=hexagon;perimeter=hexagonPerimeter2;whiteSpace=wrap;html=1;fixedSize=1;fontFamily=Times New Roman;fontSize=14;fillColor=#FAFAFA;" vertex="1" parent="1">
          <mxGeometry x="265" y="480" width="120" height="80" as="geometry" />
        </mxCell>
      </root>
    </mxGraphModel>
  </diagram>
</mxfile>
